<svg width="210" height="210" viewBox="0 0 210 210" fill="none" xmlns="http://www.w3.org/2000/svg">
<g clip-path="url(#clip0)">
<g filter="url(#filter0_d)">
<path fill-rule="evenodd" clip-rule="evenodd" d="M105 210C162.99 210 210 162.99 210 105C210 47.0101 162.99 0 105 0C47.0101 0 0 47.0101 0 105C0 162.99 47.0101 210 105 210Z" fill="#5454D4"/>
</g>
<path d="M61.351 172.315C65.53 172.315 67.672 169.543 68.239 167.254L65.53 166.435C65.131 167.821 63.892 169.48 61.351 169.48C58.957 169.48 56.731 167.737 56.731 164.566C56.731 161.185 59.083 159.589 61.309 159.589C63.892 159.589 65.047 161.164 65.404 162.592L68.134 161.731C67.546 159.316 65.425 156.796 61.309 156.796C57.319 156.796 53.728 159.82 53.728 164.566C53.728 169.312 57.193 172.315 61.351 172.315ZM74.0729 169.774C72.7079 169.774 71.4479 168.766 71.4479 166.834C71.4479 164.881 72.7079 163.894 74.0729 163.894C75.4379 163.894 76.6979 164.881 76.6979 166.834C76.6979 168.787 75.4379 169.774 74.0729 169.774ZM74.0729 161.353C70.9859 161.353 68.6549 163.642 68.6549 166.834C68.6549 170.005 70.9859 172.315 74.0729 172.315C77.1599 172.315 79.4909 170.005 79.4909 166.834C79.4909 163.642 77.1599 161.353 74.0729 161.353ZM83.8321 166.057C83.8321 164.86 84.5461 163.915 85.7641 163.915C87.1081 163.915 87.6751 164.818 87.6751 165.973V172H90.4681V165.49C90.4681 163.222 89.2921 161.395 86.7301 161.395C85.6171 161.395 84.3781 161.878 83.7481 162.949V161.668H81.0391V172H83.8321V166.057ZM102.206 161.668H99.2656L96.8086 168.598L94.2466 161.668H91.1806L95.4016 172H98.1946L102.206 161.668ZM104.978 165.658C105.041 164.713 105.839 163.621 107.288 163.621C108.884 163.621 109.556 164.629 109.598 165.658H104.978ZM109.871 168.346C109.535 169.27 108.821 169.921 107.519 169.921C106.133 169.921 104.978 168.934 104.915 167.569H112.307C112.307 167.527 112.349 167.107 112.349 166.708C112.349 163.39 110.438 161.353 107.246 161.353C104.6 161.353 102.164 163.495 102.164 166.792C102.164 170.278 104.663 172.315 107.498 172.315C110.039 172.315 111.677 170.824 112.202 169.039L109.871 168.346ZM120.192 161.626C119.982 161.605 119.772 161.584 119.541 161.584C118.659 161.584 117.231 161.836 116.601 163.201V161.668H113.892V172H116.685V167.275C116.685 165.049 117.924 164.356 119.352 164.356C119.604 164.356 119.877 164.377 120.192 164.44V161.626ZM120.679 169.123C120.805 170.299 121.876 172.315 124.984 172.315C127.693 172.315 128.995 170.593 128.995 168.913C128.995 167.401 127.966 166.162 125.929 165.742L124.459 165.427C123.892 165.322 123.514 165.007 123.514 164.503C123.514 163.915 124.102 163.474 124.837 163.474C126.013 163.474 126.454 164.251 126.538 164.86L128.869 164.335C128.743 163.222 127.756 161.353 124.816 161.353C122.59 161.353 120.952 162.886 120.952 164.734C120.952 166.183 121.855 167.38 123.85 167.821L125.215 168.136C126.013 168.304 126.328 168.682 126.328 169.144C126.328 169.69 125.887 170.173 124.963 170.173C123.745 170.173 123.136 169.417 123.073 168.598L120.679 169.123ZM133.378 172V161.668H130.585V172H133.378ZM130.249 158.287C130.249 159.211 131.026 159.988 131.971 159.988C132.937 159.988 133.693 159.211 133.693 158.287C133.693 157.321 132.937 156.544 131.971 156.544C131.026 156.544 130.249 157.321 130.249 158.287ZM140.352 169.774C138.987 169.774 137.727 168.766 137.727 166.834C137.727 164.881 138.987 163.894 140.352 163.894C141.717 163.894 142.977 164.881 142.977 166.834C142.977 168.787 141.717 169.774 140.352 169.774ZM140.352 161.353C137.265 161.353 134.934 163.642 134.934 166.834C134.934 170.005 137.265 172.315 140.352 172.315C143.439 172.315 145.77 170.005 145.77 166.834C145.77 163.642 143.439 161.353 140.352 161.353ZM150.111 166.057C150.111 164.86 150.825 163.915 152.043 163.915C153.387 163.915 153.954 164.818 153.954 165.973V172H156.747V165.49C156.747 163.222 155.571 161.395 153.009 161.395C151.896 161.395 150.657 161.878 150.027 162.949V161.668H147.318V172H150.111V166.057Z" fill="white"/>
<path d="M58.8647 120.84C59.8447 120.49 61.0347 120.14 62.9947 120.14C67.3347 120.14 70.4147 122.59 70.4147 126.86C70.4147 130.64 67.5447 133.72 62.7147 133.72C57.9547 133.72 54.6647 130.36 54.4547 125.74L45.1447 127.56C45.7047 135.19 52.1447 142.05 62.7147 142.05C73.7047 142.05 80.1447 134.84 80.1447 127C80.1447 118.67 73.8447 113.42 66.9847 113.14L78.7447 103.34V95.57H46.6147V103.9H66.4947L54.5947 114.12L58.8647 120.84ZM83.8243 139.53C86.2043 141 90.4743 142.05 94.3243 142.05C109.864 142.05 118.054 132.39 118.054 116.01C118.054 101.52 109.794 94.52 99.9243 94.52C89.8443 94.52 82.4943 101.17 82.4943 110.48C82.4943 119.86 89.7043 125.74 98.1743 125.74C102.934 125.74 106.784 123.71 108.674 120.84C108.044 129.17 102.514 133.72 94.2543 133.72C91.1043 133.72 87.8143 132.67 86.2043 131.76L83.8243 139.53ZM107.414 110.2C107.414 114.68 103.844 117.69 99.5743 117.69C95.3043 117.69 91.8043 114.75 91.8043 110.2C91.8043 105.72 95.3743 102.71 99.5743 102.71C103.844 102.71 107.414 105.72 107.414 110.2ZM127.449 106.28C127.449 103.41 129.479 101.45 132.069 101.45C134.729 101.45 136.689 103.41 136.689 106.28C136.689 109.15 134.729 111.18 132.069 111.18C129.479 111.18 127.449 109.22 127.449 106.28ZM120.449 106.28C120.449 112.65 125.699 117.69 132.069 117.69C138.369 117.69 143.759 112.79 143.759 106.28C143.759 99.84 138.369 94.8 132.069 94.8C125.769 94.8 120.449 99.84 120.449 106.28ZM158.039 130.36C158.039 127.49 160.069 125.53 162.659 125.53C165.319 125.53 167.279 127.49 167.279 130.36C167.279 133.23 165.319 135.26 162.659 135.26C160.069 135.26 158.039 133.3 158.039 130.36ZM151.039 130.36C151.039 136.73 156.289 141.77 162.659 141.77C168.959 141.77 174.349 136.87 174.349 130.36C174.349 123.92 168.959 118.88 162.659 118.88C156.359 118.88 151.039 123.92 151.039 130.36ZM135.429 141L167.489 95.57H159.369L127.309 141H135.429Z" fill="white"/>
<path fill-rule="evenodd" clip-rule="evenodd" d="M108 77C121.255 77 132 66.2548 132 53C132 39.7452 121.255 29 108 29C94.7452 29 84 39.7452 84 53C84 66.2548 94.7452 77 108 77Z" fill="#7070F4"/>
<path d="M97.6472 53.6016H103.471V66.391C103.471 66.7272 103.761 67 104.118 67H111.882C112.24 67 112.529 66.7272 112.529 66.391V53.6016H118.353C118.596 53.6016 118.819 53.4731 118.929 53.2691C119.04 53.0651 119.019 52.8197 118.876 52.6345L108.523 39.2361C108.28 38.9213 107.72 38.9213 107.477 39.2361L97.1238 52.6345C96.9808 52.8197 96.9601 53.0651 97.0701 53.2691C97.1814 53.4731 97.4039 53.6016 97.6472 53.6016Z" fill="white"/>
</g>
<defs>
<filter id="filter0_d" x="-54" y="-2" width="318" height="318" filterUnits="userSpaceOnUse" color-interpolation-filters="sRGB">
<feFlood flood-opacity="0" result="BackgroundImageFix"/>
<feColorMatrix in="SourceAlpha" type="matrix" values="0 0 0 0 0 0 0 0 0 0 0 0 0 0 0 0 0 0 127 0"/>
<feOffset dy="52"/>
<feGaussianBlur stdDeviation="27"/>
<feColorMatrix type="matrix" values="0 0 0 0 0.254026 0 0 0 0 0.241871 0 0 0 0 0.395211 0 0 0 0.296766 0"/>
<feBlend mode="normal" in2="BackgroundImageFix" result="effect1_dropShadow"/>
<feBlend mode="normal" in="SourceGraphic" in2="effect1_dropShadow" result="shape"/>
</filter>
<clipPath id="clip0">
<rect width="210" height="210" fill="white"/>
</clipPath>
</defs>
</svg>
