<svg width="389" height="154" viewBox="0 0 389 154" fill="none" xmlns="http://www.w3.org/2000/svg">
<rect width="389" height="154" rx="10" fill="white"/>
<path d="M128.28 50V43.376H134.88V40.328H128.256V36.128H135.696V32.984H124.944V50H128.28ZM144.221 50H147.269C147.221 49.592 147.149 48.776 147.149 47.864V38.192H143.957V45.056C143.957 46.424 143.141 47.384 141.725 47.384C140.237 47.384 139.565 46.328 139.565 45.008V38.192H136.373V45.656C136.373 48.224 138.005 50.312 140.861 50.312C142.109 50.312 143.477 49.832 144.125 48.728C144.125 49.208 144.173 49.76 144.221 50ZM152.997 50V32.624H149.805V50H152.997ZM158.856 50V32.624H155.664V50H158.856ZM165.603 54.656L173.019 38.192H169.611L166.707 45.104L163.563 38.192H159.987L165.003 48.512L162.219 54.656H165.603ZM188.022 50H191.718L188.07 43.04C190.302 42.392 191.694 40.592 191.694 38.216C191.694 35.264 189.582 32.984 186.27 32.984H179.622V50H182.958V43.448H184.686L188.022 50ZM182.958 40.592V35.864H185.646C187.326 35.864 188.31 36.8 188.31 38.24C188.31 39.632 187.326 40.592 185.646 40.592H182.958ZM195.631 42.752C195.703 41.672 196.615 40.424 198.271 40.424C200.095 40.424 200.863 41.576 200.911 42.752H195.631ZM201.223 45.824C200.839 46.88 200.023 47.624 198.535 47.624C196.951 47.624 195.631 46.496 195.559 44.936H204.007C204.007 44.888 204.055 44.408 204.055 43.952C204.055 40.16 201.871 37.832 198.223 37.832C195.199 37.832 192.415 40.28 192.415 44.048C192.415 48.032 195.271 50.36 198.511 50.36C201.415 50.36 203.287 48.656 203.887 46.616L201.223 45.824ZM204.811 46.712C204.955 48.056 206.179 50.36 209.731 50.36C212.827 50.36 214.315 48.392 214.315 46.472C214.315 44.744 213.139 43.328 210.811 42.848L209.131 42.488C208.483 42.368 208.051 42.008 208.051 41.432C208.051 40.76 208.723 40.256 209.563 40.256C210.907 40.256 211.411 41.144 211.507 41.84L214.171 41.24C214.027 39.968 212.899 37.832 209.539 37.832C206.995 37.832 205.123 39.584 205.123 41.696C205.123 43.352 206.155 44.72 208.435 45.224L209.995 45.584C210.907 45.776 211.267 46.208 211.267 46.736C211.267 47.36 210.763 47.912 209.707 47.912C208.315 47.912 207.619 47.048 207.547 46.112L204.811 46.712ZM219.323 54.56V48.848C219.899 49.64 221.099 50.288 222.731 50.288C226.067 50.288 228.299 47.648 228.299 44.072C228.299 40.568 226.307 37.928 222.851 37.928C221.075 37.928 219.755 38.72 219.227 39.632V38.192H216.131V54.56H219.323ZM225.155 44.096C225.155 46.208 223.859 47.432 222.227 47.432C220.595 47.432 219.275 46.184 219.275 44.096C219.275 42.008 220.595 40.784 222.227 40.784C223.859 40.784 225.155 42.008 225.155 44.096ZM235.38 47.456C233.82 47.456 232.38 46.304 232.38 44.096C232.38 41.864 233.82 40.736 235.38 40.736C236.94 40.736 238.38 41.864 238.38 44.096C238.38 46.328 236.94 47.456 235.38 47.456ZM235.38 37.832C231.852 37.832 229.188 40.448 229.188 44.096C229.188 47.72 231.852 50.36 235.38 50.36C238.908 50.36 241.572 47.72 241.572 44.096C241.572 40.448 238.908 37.832 235.38 37.832ZM246.533 43.208C246.533 41.84 247.349 40.76 248.741 40.76C250.277 40.76 250.925 41.792 250.925 43.112V50H254.117V42.56C254.117 39.968 252.773 37.88 249.845 37.88C248.573 37.88 247.157 38.432 246.437 39.656V38.192H243.341V50H246.533V43.208ZM255.598 46.712C255.742 48.056 256.966 50.36 260.518 50.36C263.614 50.36 265.102 48.392 265.102 46.472C265.102 44.744 263.926 43.328 261.598 42.848L259.918 42.488C259.27 42.368 258.838 42.008 258.838 41.432C258.838 40.76 259.51 40.256 260.35 40.256C261.694 40.256 262.198 41.144 262.294 41.84L264.958 41.24C264.814 39.968 263.686 37.832 260.326 37.832C257.782 37.832 255.91 39.584 255.91 41.696C255.91 43.352 256.942 44.72 259.222 45.224L260.782 45.584C261.694 45.776 262.054 46.208 262.054 46.736C262.054 47.36 261.55 47.912 260.494 47.912C259.102 47.912 258.406 47.048 258.334 46.112L255.598 46.712ZM270.111 50V38.192H266.919V50H270.111ZM266.535 34.328C266.535 35.384 267.423 36.272 268.503 36.272C269.607 36.272 270.471 35.384 270.471 34.328C270.471 33.224 269.607 32.336 268.503 32.336C267.423 32.336 266.535 33.224 266.535 34.328ZM283.914 38.192H280.554L277.746 46.112L274.818 38.192H271.314L276.138 50H279.33L283.914 38.192ZM287.082 42.752C287.154 41.672 288.066 40.424 289.722 40.424C291.546 40.424 292.314 41.576 292.362 42.752H287.082ZM292.674 45.824C292.29 46.88 291.474 47.624 289.986 47.624C288.402 47.624 287.082 46.496 287.01 44.936H295.458C295.458 44.888 295.506 44.408 295.506 43.952C295.506 40.16 293.322 37.832 289.674 37.832C286.65 37.832 283.866 40.28 283.866 44.048C283.866 48.032 286.722 50.36 289.962 50.36C292.866 50.36 294.738 48.656 295.338 46.616L292.674 45.824Z" fill="#19191B"/>
<path d="M134.76 86.632L137.208 77.656H138.824L135.592 89H133.976L131.016 79.8L128.088 89H126.52L123.24 77.656H124.856L127.352 86.536L130.2 77.656H131.848L134.76 86.632ZM141.33 89H139.842V81.304H141.33V89ZM139.81 79.16C139.608 78.9467 139.506 78.6907 139.506 78.392C139.506 78.0933 139.608 77.8373 139.81 77.624C140.024 77.4107 140.28 77.304 140.578 77.304C140.877 77.304 141.133 77.4107 141.346 77.624C141.56 77.8267 141.666 78.0827 141.666 78.392C141.666 78.6907 141.56 78.9467 141.346 79.16C141.133 79.3627 140.877 79.464 140.578 79.464C140.28 79.464 140.024 79.3627 139.81 79.16ZM145.405 78.872V81.304H147.069V82.664H145.405V86.664C145.405 87.0267 145.485 87.2933 145.645 87.464C145.816 87.6347 146.093 87.72 146.477 87.72C146.701 87.72 146.898 87.6987 147.069 87.656V88.936C146.813 89.032 146.472 89.08 146.045 89.08C145.384 89.08 144.861 88.888 144.477 88.504C144.093 88.12 143.901 87.5813 143.901 86.888V82.664H142.429V81.304H142.845C143.24 81.304 143.533 81.1973 143.725 80.984C143.928 80.76 144.029 80.472 144.029 80.12V78.872H145.405ZM150.08 84.472V89H148.576V77.416H150.08V82.2C150.592 81.4533 151.371 81.08 152.416 81.08C153.302 81.08 153.979 81.3627 154.448 81.928C154.928 82.4933 155.168 83.224 155.168 84.12V89H153.664V84.376C153.664 83.0853 153.067 82.44 151.872 82.44C151.318 82.44 150.886 82.632 150.576 83.016C150.267 83.3893 150.102 83.8747 150.08 84.472ZM162.064 89H160.56V77.416H162.064V89ZM165.706 87.176C166.176 87.656 166.746 87.896 167.418 87.896C168.09 87.896 168.656 87.656 169.114 87.176C169.584 86.6853 169.818 86.008 169.818 85.144C169.818 84.2907 169.584 83.624 169.114 83.144C168.656 82.6533 168.09 82.408 167.418 82.408C166.746 82.408 166.176 82.6533 165.706 83.144C165.248 83.624 165.018 84.2907 165.018 85.144C165.018 86.008 165.248 86.6853 165.706 87.176ZM164.586 82.232C165.333 81.4533 166.277 81.064 167.418 81.064C168.56 81.064 169.498 81.4533 170.234 82.232C170.981 83 171.354 83.9707 171.354 85.144C171.354 86.328 170.986 87.3093 170.25 88.088C169.514 88.856 168.57 89.24 167.418 89.24C166.266 89.24 165.322 88.856 164.586 88.088C163.85 87.3093 163.482 86.328 163.482 85.144C163.482 83.9707 163.85 83 164.586 82.232ZM174.716 78.872V81.304H176.38V82.664H174.716V86.664C174.716 87.0267 174.796 87.2933 174.956 87.464C175.127 87.6347 175.404 87.72 175.788 87.72C176.012 87.72 176.21 87.6987 176.38 87.656V88.936C176.124 89.032 175.783 89.08 175.356 89.08C174.695 89.08 174.172 88.888 173.788 88.504C173.404 88.12 173.212 87.5813 173.212 86.888V82.664H171.74V81.304H172.156C172.551 81.304 172.844 81.1973 173.036 80.984C173.239 80.76 173.34 80.472 173.34 80.12V78.872H174.716ZM177.246 87L178.606 86.52C178.659 86.936 178.84 87.2827 179.15 87.56C179.459 87.8267 179.875 87.96 180.398 87.96C180.803 87.96 181.123 87.864 181.358 87.672C181.592 87.4693 181.71 87.224 181.71 86.936C181.71 86.424 181.379 86.0933 180.718 85.944L179.406 85.656C178.808 85.528 178.339 85.272 177.998 84.888C177.656 84.504 177.486 84.04 177.486 83.496C177.486 82.8347 177.752 82.264 178.286 81.784C178.83 81.304 179.475 81.064 180.222 81.064C180.712 81.064 181.15 81.1387 181.534 81.288C181.918 81.4267 182.216 81.6133 182.43 81.848C182.643 82.0827 182.803 82.3013 182.91 82.504C183.016 82.7067 183.096 82.9147 183.15 83.128L181.822 83.624C181.8 83.496 181.763 83.3733 181.71 83.256C181.656 83.128 181.571 82.9893 181.454 82.84C181.347 82.6907 181.187 82.5733 180.974 82.488C180.76 82.392 180.51 82.344 180.222 82.344C179.848 82.344 179.539 82.4453 179.294 82.648C179.059 82.8507 178.942 83.0907 178.942 83.368C178.942 83.8587 179.235 84.168 179.822 84.296L181.07 84.568C181.752 84.7173 182.275 84.9947 182.638 85.4C183.011 85.7947 183.198 86.28 183.198 86.856C183.198 87.464 182.947 88.0133 182.446 88.504C181.955 88.9947 181.267 89.24 180.382 89.24C179.432 89.24 178.691 89.0053 178.158 88.536C177.624 88.056 177.32 87.544 177.246 87ZM189.784 87.176C190.253 87.656 190.824 87.896 191.496 87.896C192.168 87.896 192.733 87.656 193.192 87.176C193.661 86.6853 193.896 86.008 193.896 85.144C193.896 84.2907 193.661 83.624 193.192 83.144C192.733 82.6533 192.168 82.408 191.496 82.408C190.824 82.408 190.253 82.6533 189.784 83.144C189.325 83.624 189.096 84.2907 189.096 85.144C189.096 86.008 189.325 86.6853 189.784 87.176ZM188.664 82.232C189.41 81.4533 190.354 81.064 191.496 81.064C192.637 81.064 193.576 81.4533 194.312 82.232C195.058 83 195.432 83.9707 195.432 85.144C195.432 86.328 195.064 87.3093 194.328 88.088C193.592 88.856 192.648 89.24 191.496 89.24C190.344 89.24 189.4 88.856 188.664 88.088C187.928 87.3093 187.56 86.328 187.56 85.144C187.56 83.9707 187.928 83 188.664 82.232ZM200.728 82.664H198.872V89H197.32V82.664H195.896V81.304H197.32V80.008C197.32 79.1867 197.56 78.5413 198.04 78.072C198.52 77.6027 199.122 77.368 199.848 77.368C200.306 77.368 200.605 77.4213 200.744 77.528V78.872C200.584 78.808 200.365 78.776 200.088 78.776C199.757 78.776 199.469 78.8773 199.224 79.08C198.989 79.272 198.872 79.608 198.872 80.088V81.304H200.728V82.664ZM210.412 88.072C210.209 88.456 209.9 88.7493 209.484 88.952C209.068 89.144 208.62 89.24 208.14 89.24C207.265 89.24 206.566 88.952 206.044 88.376C205.521 87.7893 205.26 87.048 205.26 86.152V81.304H206.764V85.928C206.764 86.504 206.902 86.9787 207.18 87.352C207.468 87.7253 207.91 87.912 208.508 87.912C209.105 87.912 209.558 87.736 209.868 87.384C210.177 87.0213 210.332 86.5413 210.332 85.944V81.304H211.836V87.576C211.836 88.0773 211.862 88.552 211.916 89H210.476C210.433 88.7653 210.412 88.456 210.412 88.072ZM215.406 84.552V89H213.902V81.304H215.374V82.408C215.886 81.5227 216.675 81.08 217.742 81.08C218.627 81.08 219.305 81.3627 219.774 81.928C220.254 82.4933 220.494 83.224 220.494 84.12V89H218.99V84.376C218.99 83.0853 218.393 82.44 217.198 82.44C216.633 82.44 216.19 82.6427 215.87 83.048C215.561 83.4427 215.406 83.944 215.406 84.552ZM223.874 89H222.386V81.304H223.874V89ZM222.354 79.16C222.152 78.9467 222.05 78.6907 222.05 78.392C222.05 78.0933 222.152 77.8373 222.354 77.624C222.568 77.4107 222.824 77.304 223.122 77.304C223.421 77.304 223.677 77.4107 223.89 77.624C224.104 77.8267 224.21 78.0827 224.21 78.392C224.21 78.6907 224.104 78.9467 223.89 79.16C223.677 79.3627 223.421 79.464 223.122 79.464C222.824 79.464 222.568 79.3627 222.354 79.16ZM232.829 92.04H231.341V87.912C231.138 88.3067 230.824 88.6213 230.397 88.856C229.981 89.0907 229.496 89.208 228.941 89.208C227.864 89.208 226.984 88.8187 226.301 88.04C225.629 87.2507 225.293 86.28 225.293 85.128C225.293 83.9973 225.618 83.048 226.269 82.28C226.93 81.5013 227.81 81.112 228.909 81.112C229.528 81.112 230.045 81.2453 230.461 81.512C230.888 81.7787 231.192 82.104 231.373 82.488V81.304H232.829V92.04ZM227.437 83.192C227.032 83.6827 226.829 84.328 226.829 85.128C226.829 85.928 227.032 86.5893 227.437 87.112C227.853 87.624 228.402 87.88 229.085 87.88C229.757 87.88 230.301 87.624 230.717 87.112C231.144 86.5893 231.357 85.928 231.357 85.128C231.357 84.328 231.149 83.6827 230.733 83.192C230.317 82.6907 229.768 82.44 229.085 82.44C228.392 82.44 227.842 82.6907 227.437 83.192ZM239.802 88.072C239.599 88.456 239.29 88.7493 238.874 88.952C238.458 89.144 238.01 89.24 237.53 89.24C236.655 89.24 235.956 88.952 235.434 88.376C234.911 87.7893 234.65 87.048 234.65 86.152V81.304H236.154V85.928C236.154 86.504 236.292 86.9787 236.57 87.352C236.858 87.7253 237.3 87.912 237.898 87.912C238.495 87.912 238.948 87.736 239.258 87.384C239.567 87.0213 239.722 86.5413 239.722 85.944V81.304H241.226V87.576C241.226 88.0773 241.252 88.552 241.306 89H239.866C239.823 88.7653 239.802 88.456 239.802 88.072ZM244.19 84.36H248.398C248.376 83.784 248.184 83.3147 247.822 82.952C247.459 82.5787 246.947 82.392 246.286 82.392C245.688 82.392 245.198 82.5893 244.814 82.984C244.43 83.368 244.222 83.8267 244.19 84.36ZM248.622 86.36L249.918 86.808C249.694 87.5227 249.278 88.1093 248.67 88.568C248.062 89.016 247.326 89.24 246.462 89.24C245.384 89.24 244.467 88.872 243.71 88.136C242.963 87.3893 242.59 86.3867 242.59 85.128C242.59 83.9547 242.952 82.984 243.678 82.216C244.403 81.448 245.267 81.064 246.27 81.064C247.432 81.064 248.339 81.432 248.99 82.168C249.64 82.8933 249.966 83.8693 249.966 85.096C249.966 85.288 249.955 85.448 249.934 85.576H244.142C244.152 86.2587 244.376 86.8187 244.814 87.256C245.262 87.6933 245.811 87.912 246.462 87.912C247.56 87.912 248.28 87.3947 248.622 86.36ZM256.373 89H254.885V77.416H256.373V82.392C256.576 82.0187 256.896 81.7093 257.333 81.464C257.781 81.208 258.309 81.08 258.917 81.08C260.037 81.08 260.906 81.4587 261.525 82.216C262.144 82.9733 262.453 83.9387 262.453 85.112C262.453 86.296 262.133 87.2773 261.493 88.056C260.853 88.824 259.978 89.208 258.869 89.208C257.717 89.208 256.885 88.7653 256.373 87.88V89ZM260.293 87.112C260.709 86.6107 260.917 85.944 260.917 85.112C260.917 84.28 260.709 83.624 260.293 83.144C259.888 82.6533 259.338 82.408 258.645 82.408C257.973 82.408 257.424 82.6533 256.997 83.144C256.57 83.6347 256.357 84.2907 256.357 85.112C256.357 85.9333 256.57 86.6 256.997 87.112C257.424 87.6133 257.973 87.864 258.645 87.864C259.328 87.864 259.877 87.6133 260.293 87.112ZM265.373 89H263.869V77.416H265.373V89ZM269.016 87.176C269.485 87.656 270.056 87.896 270.728 87.896C271.4 87.896 271.965 87.656 272.424 87.176C272.893 86.6853 273.128 86.008 273.128 85.144C273.128 84.2907 272.893 83.624 272.424 83.144C271.965 82.6533 271.4 82.408 270.728 82.408C270.056 82.408 269.485 82.6533 269.016 83.144C268.557 83.624 268.328 84.2907 268.328 85.144C268.328 86.008 268.557 86.6853 269.016 87.176ZM267.896 82.232C268.642 81.4533 269.586 81.064 270.728 81.064C271.869 81.064 272.808 81.4533 273.544 82.232C274.29 83 274.664 83.9707 274.664 85.144C274.664 86.328 274.296 87.3093 273.56 88.088C272.824 88.856 271.88 89.24 270.728 89.24C269.576 89.24 268.632 88.856 267.896 88.088C267.16 87.3093 266.792 86.328 266.792 85.144C266.792 83.9707 267.16 83 267.896 82.232ZM279.32 82.456C278.669 82.456 278.114 82.6907 277.656 83.16C277.208 83.6293 276.984 84.2907 276.984 85.144C276.984 85.9867 277.208 86.648 277.656 87.128C278.114 87.608 278.674 87.848 279.336 87.848C279.976 87.848 280.461 87.688 280.792 87.368C281.133 87.048 281.362 86.68 281.48 86.264L282.808 86.84C282.594 87.48 282.189 88.04 281.592 88.52C281.005 89 280.253 89.24 279.336 89.24C278.216 89.24 277.288 88.8507 276.552 88.072C275.816 87.2933 275.448 86.3173 275.448 85.144C275.448 83.9493 275.816 82.9733 276.552 82.216C277.288 81.448 278.21 81.064 279.32 81.064C280.258 81.064 281.016 81.304 281.592 81.784C282.178 82.264 282.562 82.84 282.744 83.512L281.384 84.088C281.266 83.64 281.042 83.256 280.712 82.936C280.381 82.616 279.917 82.456 279.32 82.456ZM290.968 81.304L287.688 84.552L291.032 89H289.144L286.632 85.608L285.56 86.68V89H284.072V77.416H285.56V84.712L288.888 81.304H290.968ZM291.258 87L292.618 86.52C292.671 86.936 292.853 87.2827 293.162 87.56C293.471 87.8267 293.887 87.96 294.41 87.96C294.815 87.96 295.135 87.864 295.37 87.672C295.605 87.4693 295.722 87.224 295.722 86.936C295.722 86.424 295.391 86.0933 294.73 85.944L293.418 85.656C292.821 85.528 292.351 85.272 292.01 84.888C291.669 84.504 291.498 84.04 291.498 83.496C291.498 82.8347 291.765 82.264 292.298 81.784C292.842 81.304 293.487 81.064 294.234 81.064C294.725 81.064 295.162 81.1387 295.546 81.288C295.93 81.4267 296.229 81.6133 296.442 81.848C296.655 82.0827 296.815 82.3013 296.922 82.504C297.029 82.7067 297.109 82.9147 297.162 83.128L295.834 83.624C295.813 83.496 295.775 83.3733 295.722 83.256C295.669 83.128 295.583 82.9893 295.466 82.84C295.359 82.6907 295.199 82.5733 294.986 82.488C294.773 82.392 294.522 82.344 294.234 82.344C293.861 82.344 293.551 82.4453 293.306 82.648C293.071 82.8507 292.954 83.0907 292.954 83.368C292.954 83.8587 293.247 84.168 293.834 84.296L295.082 84.568C295.765 84.7173 296.287 84.9947 296.65 85.4C297.023 85.7947 297.21 86.28 297.21 86.856C297.21 87.464 296.959 88.0133 296.458 88.504C295.967 88.9947 295.279 89.24 294.394 89.24C293.445 89.24 292.703 89.0053 292.17 88.536C291.637 88.056 291.333 87.544 291.258 87ZM298.552 87.976C298.552 87.688 298.664 87.4373 298.888 87.224C299.112 87.0107 299.389 86.904 299.72 86.904C300.083 86.904 300.387 87.0373 300.632 87.304C300.888 87.5707 301.016 87.944 301.016 88.424C301.016 89.384 300.771 90.1253 300.28 90.648C299.789 91.1707 299.245 91.4693 298.648 91.544V90.712C299.032 90.6267 299.347 90.4133 299.592 90.072C299.837 89.7413 299.965 89.3787 299.976 88.984C299.901 89.0373 299.784 89.064 299.624 89.064C299.315 89.064 299.059 88.968 298.856 88.776C298.653 88.5733 298.552 88.3067 298.552 87.976ZM308.335 92.216H306.687L308.607 88.152L305.295 81.304H307.023L309.423 86.616L311.727 81.304H313.343L308.335 92.216ZM315.561 87.176C316.03 87.656 316.601 87.896 317.273 87.896C317.945 87.896 318.51 87.656 318.969 87.176C319.438 86.6853 319.673 86.008 319.673 85.144C319.673 84.2907 319.438 83.624 318.969 83.144C318.51 82.6533 317.945 82.408 317.273 82.408C316.601 82.408 316.03 82.6533 315.561 83.144C315.102 83.624 314.873 84.2907 314.873 85.144C314.873 86.008 315.102 86.6853 315.561 87.176ZM314.441 82.232C315.188 81.4533 316.132 81.064 317.273 81.064C318.414 81.064 319.353 81.4533 320.089 82.232C320.836 83 321.209 83.9707 321.209 85.144C321.209 86.328 320.841 87.3093 320.105 88.088C319.369 88.856 318.425 89.24 317.273 89.24C316.121 89.24 315.177 88.856 314.441 88.088C313.705 87.3093 313.337 86.328 313.337 85.144C313.337 83.9707 313.705 83 314.441 82.232ZM327.627 88.072C327.424 88.456 327.115 88.7493 326.699 88.952C326.283 89.144 325.835 89.24 325.355 89.24C324.48 89.24 323.782 88.952 323.259 88.376C322.736 87.7893 322.475 87.048 322.475 86.152V81.304H323.979V85.928C323.979 86.504 324.118 86.9787 324.395 87.352C324.683 87.7253 325.126 87.912 325.723 87.912C326.32 87.912 326.774 87.736 327.083 87.384C327.392 87.0213 327.547 86.5413 327.547 85.944V81.304H329.051V87.576C329.051 88.0773 329.078 88.552 329.131 89H327.691C327.648 88.7653 327.627 88.456 327.627 88.072ZM337.849 82.456C337.198 82.456 336.644 82.6907 336.185 83.16C335.737 83.6293 335.513 84.2907 335.513 85.144C335.513 85.9867 335.737 86.648 336.185 87.128C336.644 87.608 337.204 87.848 337.865 87.848C338.505 87.848 338.99 87.688 339.321 87.368C339.662 87.048 339.892 86.68 340.009 86.264L341.337 86.84C341.124 87.48 340.718 88.04 340.121 88.52C339.534 89 338.782 89.24 337.865 89.24C336.745 89.24 335.817 88.8507 335.081 88.072C334.345 87.2933 333.977 86.3173 333.977 85.144C333.977 83.9493 334.345 82.9733 335.081 82.216C335.817 81.448 336.74 81.064 337.849 81.064C338.788 81.064 339.545 81.304 340.121 81.784C340.708 82.264 341.092 82.84 341.273 83.512L339.913 84.088C339.796 83.64 339.572 83.256 339.241 82.936C338.91 82.616 338.446 82.456 337.849 82.456ZM342.043 86.936C342.043 86.2747 342.256 85.7467 342.683 85.352C343.11 84.9467 343.675 84.696 344.379 84.6L346.459 84.296C346.854 84.2427 347.051 84.0507 347.051 83.72C347.051 83.3147 346.912 82.984 346.635 82.728C346.358 82.472 345.942 82.344 345.387 82.344C344.875 82.344 344.47 82.488 344.171 82.776C343.872 83.0533 343.696 83.4267 343.643 83.896L342.203 83.56C342.278 82.824 342.614 82.2267 343.211 81.768C343.808 81.2987 344.523 81.064 345.355 81.064C346.443 81.064 347.248 81.3307 347.771 81.864C348.294 82.3867 348.555 83.0587 348.555 83.88V87.736C348.555 88.1947 348.587 88.616 348.651 89H347.179C347.126 88.68 347.099 88.3333 347.099 87.96C346.886 88.3013 346.571 88.6 346.155 88.856C345.75 89.112 345.238 89.24 344.619 89.24C343.862 89.24 343.243 89.016 342.763 88.568C342.283 88.1093 342.043 87.5653 342.043 86.936ZM344.827 87.976C345.499 87.976 346.038 87.7947 346.443 87.432C346.848 87.0693 347.051 86.4933 347.051 85.704V85.352L344.699 85.704C344.358 85.7573 344.086 85.88 343.883 86.072C343.68 86.264 343.579 86.5253 343.579 86.856C343.579 87.1547 343.691 87.416 343.915 87.64C344.15 87.864 344.454 87.976 344.827 87.976ZM351.902 84.552V89H350.398V81.304H351.87V82.408C352.382 81.5227 353.171 81.08 354.238 81.08C355.123 81.08 355.801 81.3627 356.27 81.928C356.75 82.4933 356.99 83.224 356.99 84.12V89H355.486V84.376C355.486 83.0853 354.889 82.44 353.694 82.44C353.129 82.44 352.686 82.6427 352.366 83.048C352.057 83.4427 351.902 83.944 351.902 84.552ZM125.256 112.36H129.464C129.443 111.784 129.251 111.315 128.888 110.952C128.525 110.579 128.013 110.392 127.352 110.392C126.755 110.392 126.264 110.589 125.88 110.984C125.496 111.368 125.288 111.827 125.256 112.36ZM129.688 114.36L130.984 114.808C130.76 115.523 130.344 116.109 129.736 116.568C129.128 117.016 128.392 117.24 127.528 117.24C126.451 117.24 125.533 116.872 124.776 116.136C124.029 115.389 123.656 114.387 123.656 113.128C123.656 111.955 124.019 110.984 124.744 110.216C125.469 109.448 126.333 109.064 127.336 109.064C128.499 109.064 129.405 109.432 130.056 110.168C130.707 110.893 131.032 111.869 131.032 113.096C131.032 113.288 131.021 113.448 131 113.576H125.208C125.219 114.259 125.443 114.819 125.88 115.256C126.328 115.693 126.877 115.912 127.528 115.912C128.627 115.912 129.347 115.395 129.688 114.36ZM131.972 114.936C131.972 114.275 132.185 113.747 132.612 113.352C133.038 112.947 133.604 112.696 134.308 112.6L136.388 112.296C136.782 112.243 136.98 112.051 136.98 111.72C136.98 111.315 136.841 110.984 136.564 110.728C136.286 110.472 135.87 110.344 135.316 110.344C134.804 110.344 134.398 110.488 134.1 110.776C133.801 111.053 133.625 111.427 133.572 111.896L132.132 111.56C132.206 110.824 132.542 110.227 133.14 109.768C133.737 109.299 134.452 109.064 135.284 109.064C136.372 109.064 137.177 109.331 137.7 109.864C138.222 110.387 138.484 111.059 138.484 111.88V115.736C138.484 116.195 138.516 116.616 138.58 117H137.108C137.054 116.68 137.028 116.333 137.028 115.96C136.814 116.301 136.5 116.6 136.084 116.856C135.678 117.112 135.166 117.24 134.548 117.24C133.79 117.24 133.172 117.016 132.692 116.568C132.212 116.109 131.972 115.565 131.972 114.936ZM134.756 115.976C135.428 115.976 135.966 115.795 136.372 115.432C136.777 115.069 136.98 114.493 136.98 113.704V113.352L134.628 113.704C134.286 113.757 134.014 113.88 133.812 114.072C133.609 114.264 133.508 114.525 133.508 114.856C133.508 115.155 133.62 115.416 133.844 115.64C134.078 115.864 134.382 115.976 134.756 115.976ZM139.606 115L140.966 114.52C141.02 114.936 141.201 115.283 141.51 115.56C141.82 115.827 142.236 115.96 142.758 115.96C143.164 115.96 143.484 115.864 143.718 115.672C143.953 115.469 144.07 115.224 144.07 114.936C144.07 114.424 143.74 114.093 143.078 113.944L141.766 113.656C141.169 113.528 140.7 113.272 140.358 112.888C140.017 112.504 139.846 112.04 139.846 111.496C139.846 110.835 140.113 110.264 140.646 109.784C141.19 109.304 141.836 109.064 142.582 109.064C143.073 109.064 143.51 109.139 143.894 109.288C144.278 109.427 144.577 109.613 144.79 109.848C145.004 110.083 145.164 110.301 145.27 110.504C145.377 110.707 145.457 110.915 145.51 111.128L144.182 111.624C144.161 111.496 144.124 111.373 144.07 111.256C144.017 111.128 143.932 110.989 143.814 110.84C143.708 110.691 143.548 110.573 143.334 110.488C143.121 110.392 142.87 110.344 142.582 110.344C142.209 110.344 141.9 110.445 141.654 110.648C141.42 110.851 141.302 111.091 141.302 111.368C141.302 111.859 141.596 112.168 142.182 112.296L143.43 112.568C144.113 112.717 144.636 112.995 144.998 113.4C145.372 113.795 145.558 114.28 145.558 114.856C145.558 115.464 145.308 116.013 144.806 116.504C144.316 116.995 143.628 117.24 142.742 117.24C141.793 117.24 141.052 117.005 140.518 116.536C139.985 116.056 139.681 115.544 139.606 115ZM148.549 117H147.061V109.304H148.549V117ZM147.029 107.16C146.826 106.947 146.725 106.691 146.725 106.392C146.725 106.093 146.826 105.837 147.029 105.624C147.242 105.411 147.498 105.304 147.797 105.304C148.095 105.304 148.351 105.411 148.565 105.624C148.778 105.827 148.885 106.083 148.885 106.392C148.885 106.691 148.778 106.947 148.565 107.16C148.351 107.363 148.095 107.464 147.797 107.464C147.498 107.464 147.242 107.363 147.029 107.16ZM152.111 117H150.607V105.416H152.111V117ZM156.09 120.216H154.442L156.362 116.152L153.05 109.304H154.778L157.178 114.616L159.482 109.304H161.098L156.09 120.216ZM167.032 117H165.544V105.416H167.032V110.392C167.235 110.019 167.555 109.709 167.992 109.464C168.44 109.208 168.968 109.08 169.576 109.08C170.696 109.08 171.565 109.459 172.184 110.216C172.803 110.973 173.112 111.939 173.112 113.112C173.112 114.296 172.792 115.277 172.152 116.056C171.512 116.824 170.637 117.208 169.528 117.208C168.376 117.208 167.544 116.765 167.032 115.88V117ZM170.952 115.112C171.368 114.611 171.576 113.944 171.576 113.112C171.576 112.28 171.368 111.624 170.952 111.144C170.547 110.653 169.997 110.408 169.304 110.408C168.632 110.408 168.083 110.653 167.656 111.144C167.229 111.635 167.016 112.291 167.016 113.112C167.016 113.933 167.229 114.6 167.656 115.112C168.083 115.613 168.632 115.864 169.304 115.864C169.987 115.864 170.536 115.613 170.952 115.112ZM179.522 116.072C179.32 116.456 179.01 116.749 178.594 116.952C178.178 117.144 177.73 117.24 177.25 117.24C176.376 117.24 175.677 116.952 175.154 116.376C174.632 115.789 174.37 115.048 174.37 114.152V109.304H175.874V113.928C175.874 114.504 176.013 114.979 176.29 115.352C176.578 115.725 177.021 115.912 177.618 115.912C178.216 115.912 178.669 115.736 178.978 115.384C179.288 115.021 179.442 114.541 179.442 113.944V109.304H180.946V115.576C180.946 116.077 180.973 116.552 181.026 117H179.586C179.544 116.765 179.522 116.456 179.522 116.072ZM184.5 117H183.012V109.304H184.5V117ZM182.98 107.16C182.778 106.947 182.676 106.691 182.676 106.392C182.676 106.093 182.778 105.837 182.98 105.624C183.194 105.411 183.45 105.304 183.748 105.304C184.047 105.304 184.303 105.411 184.516 105.624C184.73 105.827 184.836 106.083 184.836 106.392C184.836 106.691 184.73 106.947 184.516 107.16C184.303 107.363 184.047 107.464 183.748 107.464C183.45 107.464 183.194 107.363 182.98 107.16ZM188.063 117H186.559V105.416H188.063V117ZM191.017 113.128C191.017 113.939 191.215 114.6 191.609 115.112C192.015 115.624 192.569 115.88 193.273 115.88C193.945 115.88 194.484 115.619 194.889 115.096C195.295 114.573 195.497 113.907 195.497 113.096C195.497 112.296 195.3 111.651 194.905 111.16C194.511 110.669 193.972 110.424 193.289 110.424C192.607 110.424 192.057 110.675 191.641 111.176C191.225 111.677 191.017 112.328 191.017 113.128ZM195.513 115.96V115.832C195.311 116.227 195.001 116.557 194.585 116.824C194.18 117.08 193.695 117.208 193.129 117.208C192.031 117.208 191.145 116.824 190.473 116.056C189.812 115.277 189.481 114.301 189.481 113.128C189.481 112.008 189.823 111.059 190.505 110.28C191.188 109.491 192.063 109.096 193.129 109.096C193.759 109.096 194.271 109.224 194.665 109.48C195.06 109.725 195.332 110.029 195.481 110.392V105.416H196.969V115.576C196.969 116.099 196.996 116.573 197.049 117H195.593C195.54 116.701 195.513 116.355 195.513 115.96ZM202.047 114.936C202.047 114.275 202.261 113.747 202.687 113.352C203.114 112.947 203.679 112.696 204.383 112.6L206.463 112.296C206.858 112.243 207.055 112.051 207.055 111.72C207.055 111.315 206.917 110.984 206.639 110.728C206.362 110.472 205.946 110.344 205.391 110.344C204.879 110.344 204.474 110.488 204.175 110.776C203.877 111.053 203.701 111.427 203.647 111.896L202.207 111.56C202.282 110.824 202.618 110.227 203.215 109.768C203.813 109.299 204.527 109.064 205.359 109.064C206.447 109.064 207.253 109.331 207.775 109.864C208.298 110.387 208.559 111.059 208.559 111.88V115.736C208.559 116.195 208.591 116.616 208.655 117H207.183C207.13 116.68 207.103 116.333 207.103 115.96C206.89 116.301 206.575 116.6 206.159 116.856C205.754 117.112 205.242 117.24 204.623 117.24C203.866 117.24 203.247 117.016 202.767 116.568C202.287 116.109 202.047 115.565 202.047 114.936ZM204.831 115.976C205.503 115.976 206.042 115.795 206.447 115.432C206.853 115.069 207.055 114.493 207.055 113.704V113.352L204.703 113.704C204.362 113.757 204.09 113.88 203.887 114.072C203.685 114.264 203.583 114.525 203.583 114.856C203.583 115.155 203.695 115.416 203.919 115.64C204.154 115.864 204.458 115.976 204.831 115.976ZM215.39 120.04H213.902V109.304H215.358V110.504C215.582 110.099 215.918 109.768 216.366 109.512C216.814 109.256 217.337 109.128 217.934 109.128C219.043 109.128 219.907 109.507 220.526 110.264C221.155 111.021 221.47 111.981 221.47 113.144C221.47 114.317 221.145 115.288 220.494 116.056C219.854 116.824 218.985 117.208 217.886 117.208C217.321 117.208 216.819 117.091 216.382 116.856C215.945 116.621 215.614 116.323 215.39 115.96V120.04ZM219.934 113.144C219.934 112.365 219.726 111.725 219.31 111.224C218.905 110.712 218.355 110.456 217.662 110.456C216.979 110.456 216.425 110.712 215.998 111.224C215.582 111.725 215.374 112.365 215.374 113.144C215.374 113.944 215.582 114.6 215.998 115.112C216.425 115.613 216.979 115.864 217.662 115.864C218.345 115.864 218.894 115.613 219.31 115.112C219.726 114.6 219.934 113.944 219.934 113.144ZM222.406 114.936C222.406 114.275 222.619 113.747 223.046 113.352C223.473 112.947 224.038 112.696 224.742 112.6L226.822 112.296C227.217 112.243 227.414 112.051 227.414 111.72C227.414 111.315 227.275 110.984 226.998 110.728C226.721 110.472 226.305 110.344 225.75 110.344C225.238 110.344 224.833 110.488 224.534 110.776C224.235 111.053 224.059 111.427 224.006 111.896L222.566 111.56C222.641 110.824 222.977 110.227 223.574 109.768C224.171 109.299 224.886 109.064 225.718 109.064C226.806 109.064 227.611 109.331 228.134 109.864C228.657 110.387 228.918 111.059 228.918 111.88V115.736C228.918 116.195 228.95 116.616 229.014 117H227.542C227.489 116.68 227.462 116.333 227.462 115.96C227.249 116.301 226.934 116.6 226.518 116.856C226.113 117.112 225.601 117.24 224.982 117.24C224.225 117.24 223.606 117.016 223.126 116.568C222.646 116.109 222.406 115.565 222.406 114.936ZM225.19 115.976C225.862 115.976 226.401 115.795 226.806 115.432C227.211 115.069 227.414 114.493 227.414 113.704V113.352L225.062 113.704C224.721 113.757 224.449 113.88 224.246 114.072C224.043 114.264 223.942 114.525 223.942 114.856C223.942 115.155 224.054 115.416 224.278 115.64C224.513 115.864 224.817 115.976 225.19 115.976ZM230.201 117.416L231.657 117.08C231.71 117.624 231.929 118.072 232.313 118.424C232.697 118.787 233.177 118.968 233.753 118.968C235.321 118.968 236.105 118.136 236.105 116.472V115.368C235.913 115.741 235.609 116.045 235.193 116.28C234.787 116.515 234.307 116.632 233.753 116.632C232.729 116.632 231.881 116.285 231.209 115.592C230.547 114.888 230.217 113.992 230.217 112.904C230.217 111.848 230.547 110.963 231.209 110.248C231.87 109.523 232.718 109.16 233.753 109.16C234.926 109.16 235.715 109.565 236.121 110.376V109.304H237.609V116.424C237.609 116.936 237.539 117.411 237.401 117.848C237.273 118.296 237.065 118.707 236.777 119.08C236.489 119.453 236.083 119.747 235.561 119.96C235.049 120.173 234.446 120.28 233.753 120.28C232.803 120.28 231.998 120.008 231.337 119.464C230.675 118.931 230.297 118.248 230.201 117.416ZM233.977 115.368C234.627 115.368 235.155 115.144 235.561 114.696C235.966 114.237 236.169 113.64 236.169 112.904C236.169 112.168 235.966 111.576 235.561 111.128C235.155 110.669 234.627 110.44 233.977 110.44C233.315 110.44 232.777 110.664 232.361 111.112C231.955 111.56 231.753 112.157 231.753 112.904C231.753 113.661 231.95 114.264 232.345 114.712C232.75 115.149 233.294 115.368 233.977 115.368ZM240.487 112.36H244.695C244.673 111.784 244.481 111.315 244.119 110.952C243.756 110.579 243.244 110.392 242.583 110.392C241.985 110.392 241.495 110.589 241.111 110.984C240.727 111.368 240.519 111.827 240.487 112.36ZM244.919 114.36L246.215 114.808C245.991 115.523 245.575 116.109 244.967 116.568C244.359 117.016 243.623 117.24 242.759 117.24C241.681 117.24 240.764 116.872 240.007 116.136C239.26 115.389 238.887 114.387 238.887 113.128C238.887 111.955 239.249 110.984 239.975 110.216C240.7 109.448 241.564 109.064 242.567 109.064C243.729 109.064 244.636 109.432 245.287 110.168C245.937 110.893 246.263 111.869 246.263 113.096C246.263 113.288 246.252 113.448 246.231 113.576H240.439C240.449 114.259 240.673 114.819 241.111 115.256C241.559 115.693 242.108 115.912 242.759 115.912C243.857 115.912 244.577 115.395 244.919 114.36ZM255.518 109.304H257.07L259.07 115.096L260.766 109.304H262.35L259.854 117H258.302L256.254 111.144L254.254 117H252.67L250.142 109.304H251.79L253.518 115.096L255.518 109.304ZM264.857 117H263.369V109.304H264.857V117ZM263.337 107.16C263.135 106.947 263.033 106.691 263.033 106.392C263.033 106.093 263.135 105.837 263.337 105.624C263.551 105.411 263.807 105.304 264.105 105.304C264.404 105.304 264.66 105.411 264.873 105.624C265.087 105.827 265.193 106.083 265.193 106.392C265.193 106.691 265.087 106.947 264.873 107.16C264.66 107.363 264.404 107.464 264.105 107.464C263.807 107.464 263.551 107.363 263.337 107.16ZM268.932 106.872V109.304H270.596V110.664H268.932V114.664C268.932 115.027 269.012 115.293 269.172 115.464C269.343 115.635 269.62 115.72 270.004 115.72C270.228 115.72 270.425 115.699 270.596 115.656V116.936C270.34 117.032 269.999 117.08 269.572 117.08C268.911 117.08 268.388 116.888 268.004 116.504C267.62 116.12 267.428 115.581 267.428 114.888V110.664H265.956V109.304H266.372C266.767 109.304 267.06 109.197 267.252 108.984C267.455 108.76 267.556 108.472 267.556 108.12V106.872H268.932ZM273.607 112.472V117H272.103V105.416H273.607V110.2C274.119 109.453 274.898 109.08 275.943 109.08C276.829 109.08 277.506 109.363 277.975 109.928C278.455 110.493 278.695 111.224 278.695 112.12V117H277.191V112.376C277.191 111.085 276.594 110.44 275.399 110.44C274.845 110.44 274.413 110.632 274.103 111.016C273.794 111.389 273.629 111.875 273.607 112.472ZM282.171 115.176C282.641 115.656 283.211 115.896 283.883 115.896C284.555 115.896 285.121 115.656 285.579 115.176C286.049 114.685 286.283 114.008 286.283 113.144C286.283 112.291 286.049 111.624 285.579 111.144C285.121 110.653 284.555 110.408 283.883 110.408C283.211 110.408 282.641 110.653 282.171 111.144C281.713 111.624 281.483 112.291 281.483 113.144C281.483 114.008 281.713 114.685 282.171 115.176ZM281.051 110.232C281.798 109.453 282.742 109.064 283.883 109.064C285.025 109.064 285.963 109.453 286.699 110.232C287.446 111 287.819 111.971 287.819 113.144C287.819 114.328 287.451 115.309 286.715 116.088C285.979 116.856 285.035 117.24 283.883 117.24C282.731 117.24 281.787 116.856 281.051 116.088C280.315 115.309 279.947 114.328 279.947 113.144C279.947 111.971 280.315 111 281.051 110.232ZM294.237 116.072C294.035 116.456 293.725 116.749 293.309 116.952C292.893 117.144 292.445 117.24 291.965 117.24C291.091 117.24 290.392 116.952 289.869 116.376C289.347 115.789 289.085 115.048 289.085 114.152V109.304H290.589V113.928C290.589 114.504 290.728 114.979 291.005 115.352C291.293 115.725 291.736 115.912 292.333 115.912C292.931 115.912 293.384 115.736 293.693 115.384C294.003 115.021 294.157 114.541 294.157 113.944V109.304H295.661V115.576C295.661 116.077 295.688 116.552 295.741 117H294.301C294.259 116.765 294.237 116.456 294.237 116.072ZM299.744 106.872V109.304H301.408V110.664H299.744V114.664C299.744 115.027 299.824 115.293 299.984 115.464C300.154 115.635 300.432 115.72 300.816 115.72C301.04 115.72 301.237 115.699 301.408 115.656V116.936C301.152 117.032 300.81 117.08 300.384 117.08C299.722 117.08 299.2 116.888 298.816 116.504C298.432 116.12 298.24 115.581 298.24 114.888V110.664H296.768V109.304H297.184C297.578 109.304 297.872 109.197 298.064 108.984C298.266 108.76 298.368 108.472 298.368 108.12V106.872H299.744ZM309.647 110.456C308.996 110.456 308.441 110.691 307.983 111.16C307.535 111.629 307.311 112.291 307.311 113.144C307.311 113.987 307.535 114.648 307.983 115.128C308.441 115.608 309.001 115.848 309.663 115.848C310.303 115.848 310.788 115.688 311.119 115.368C311.46 115.048 311.689 114.68 311.807 114.264L313.135 114.84C312.921 115.48 312.516 116.04 311.919 116.52C311.332 117 310.58 117.24 309.663 117.24C308.543 117.24 307.615 116.851 306.879 116.072C306.143 115.293 305.775 114.317 305.775 113.144C305.775 111.949 306.143 110.973 306.879 110.216C307.615 109.448 308.537 109.064 309.647 109.064C310.585 109.064 311.343 109.304 311.919 109.784C312.505 110.264 312.889 110.84 313.071 111.512L311.711 112.088C311.593 111.64 311.369 111.256 311.039 110.936C310.708 110.616 310.244 110.456 309.647 110.456ZM315.905 115.176C316.374 115.656 316.945 115.896 317.617 115.896C318.289 115.896 318.854 115.656 319.313 115.176C319.782 114.685 320.017 114.008 320.017 113.144C320.017 112.291 319.782 111.624 319.313 111.144C318.854 110.653 318.289 110.408 317.617 110.408C316.945 110.408 316.374 110.653 315.905 111.144C315.446 111.624 315.217 112.291 315.217 113.144C315.217 114.008 315.446 114.685 315.905 115.176ZM314.785 110.232C315.531 109.453 316.475 109.064 317.617 109.064C318.758 109.064 319.697 109.453 320.433 110.232C321.179 111 321.553 111.971 321.553 113.144C321.553 114.328 321.185 115.309 320.449 116.088C319.713 116.856 318.769 117.24 317.617 117.24C316.465 117.24 315.521 116.856 314.785 116.088C314.049 115.309 313.681 114.328 313.681 113.144C313.681 111.971 314.049 111 314.785 110.232ZM323.873 113.128C323.873 113.939 324.07 114.6 324.465 115.112C324.87 115.624 325.425 115.88 326.129 115.88C326.801 115.88 327.339 115.619 327.745 115.096C328.15 114.573 328.353 113.907 328.353 113.096C328.353 112.296 328.155 111.651 327.761 111.16C327.366 110.669 326.827 110.424 326.145 110.424C325.462 110.424 324.913 110.675 324.497 111.176C324.081 111.677 323.873 112.328 323.873 113.128ZM328.369 115.96V115.832C328.166 116.227 327.857 116.557 327.441 116.824C327.035 117.08 326.55 117.208 325.985 117.208C324.886 117.208 324.001 116.824 323.329 116.056C322.667 115.277 322.337 114.301 322.337 113.128C322.337 112.008 322.678 111.059 323.361 110.28C324.043 109.491 324.918 109.096 325.985 109.096C326.614 109.096 327.126 109.224 327.521 109.48C327.915 109.725 328.187 110.029 328.337 110.392V105.416H329.825V115.576C329.825 116.099 329.851 116.573 329.905 117H328.449C328.395 116.701 328.369 116.355 328.369 115.96ZM333.371 117H331.883V109.304H333.371V117ZM331.851 107.16C331.648 106.947 331.547 106.691 331.547 106.392C331.547 106.093 331.648 105.837 331.851 105.624C332.064 105.411 332.32 105.304 332.619 105.304C332.918 105.304 333.174 105.411 333.387 105.624C333.6 105.827 333.707 106.083 333.707 106.392C333.707 106.691 333.6 106.947 333.387 107.16C333.174 107.363 332.918 107.464 332.619 107.464C332.32 107.464 332.064 107.363 331.851 107.16ZM336.934 112.552V117H335.43V109.304H336.902V110.408C337.414 109.523 338.203 109.08 339.27 109.08C340.155 109.08 340.832 109.363 341.302 109.928C341.782 110.493 342.022 111.224 342.022 112.12V117H340.518V112.376C340.518 111.085 339.92 110.44 338.726 110.44C338.16 110.44 337.718 110.643 337.398 111.048C337.088 111.443 336.934 111.944 336.934 112.552ZM343.354 117.416L344.81 117.08C344.863 117.624 345.082 118.072 345.466 118.424C345.85 118.787 346.33 118.968 346.906 118.968C348.474 118.968 349.258 118.136 349.258 116.472V115.368C349.066 115.741 348.762 116.045 348.346 116.28C347.94 116.515 347.46 116.632 346.906 116.632C345.882 116.632 345.034 116.285 344.362 115.592C343.7 114.888 343.37 113.992 343.37 112.904C343.37 111.848 343.7 110.963 344.362 110.248C345.023 109.523 345.871 109.16 346.906 109.16C348.079 109.16 348.868 109.565 349.274 110.376V109.304H350.762V116.424C350.762 116.936 350.692 117.411 350.554 117.848C350.426 118.296 350.218 118.707 349.93 119.08C349.642 119.453 349.236 119.747 348.714 119.96C348.202 120.173 347.599 120.28 346.906 120.28C345.956 120.28 345.151 120.008 344.49 119.464C343.828 118.931 343.45 118.248 343.354 117.416ZM347.13 115.368C347.78 115.368 348.308 115.144 348.714 114.696C349.119 114.237 349.322 113.64 349.322 112.904C349.322 112.168 349.119 111.576 348.714 111.128C348.308 110.669 347.78 110.44 347.13 110.44C346.468 110.44 345.93 110.664 345.514 111.112C345.108 111.56 344.906 112.157 344.906 112.904C344.906 113.661 345.103 114.264 345.498 114.712C345.903 115.149 346.447 115.368 347.13 115.368ZM352.823 116.76C352.61 116.547 352.503 116.285 352.503 115.976C352.503 115.667 352.61 115.405 352.823 115.192C353.037 114.968 353.298 114.856 353.607 114.856C353.917 114.856 354.178 114.968 354.391 115.192C354.615 115.405 354.727 115.667 354.727 115.976C354.727 116.285 354.615 116.547 354.391 116.76C354.178 116.973 353.917 117.08 353.607 117.08C353.298 117.08 353.037 116.973 352.823 116.76Z" fill="#696871"/>
<path fill-rule="evenodd" clip-rule="evenodd" d="M62.5 94C81.5538 94 97 78.5538 97 59.5C97 40.4462 81.5538 25 62.5 25C43.4462 25 28 40.4462 28 59.5C28 78.5538 43.4462 94 62.5 94Z" fill="#5454D4" fill-opacity="0.1"/>
<path d="M64 74H48.16C46.9671 74 46 73.0103 46 71.7895V48.2105C46 46.9897 46.9671 46 48.16 46H64V47.4737H48.16C47.7624 47.4737 47.44 47.8036 47.44 48.2105V71.7895C47.44 72.1964 47.7624 72.5263 48.16 72.5263H64V74Z" fill="#5454D4"/>
<path fill-rule="evenodd" clip-rule="evenodd" d="M66 46H77.7895C79.0103 46 80 46.9897 80 48.2105V71.7895C80 73.0103 79.0103 74 77.7895 74H66V46ZM70.4211 66.6316H75.5789C75.9859 66.6316 76.3158 66.3017 76.3158 65.8947C76.3158 65.4878 75.9859 65.1579 75.5789 65.1579H70.4211C70.0141 65.1579 69.6842 65.4878 69.6842 65.8947C69.6842 66.3017 70.0141 66.6316 70.4211 66.6316ZM75.5789 60.7368H70.4211C70.0141 60.7368 69.6842 60.4069 69.6842 60C69.6842 59.5931 70.0141 59.2632 70.4211 59.2632H75.5789C75.9859 59.2632 76.3158 59.5931 76.3158 60C76.3158 60.4069 75.9859 60.7368 75.5789 60.7368ZM70.4211 54.8421H75.5789C75.9859 54.8421 76.3158 54.5122 76.3158 54.1053C76.3158 53.6983 75.9859 53.3684 75.5789 53.3684H70.4211C70.0141 53.3684 69.6842 53.6983 69.6842 54.1053C69.6842 54.5122 70.0141 54.8421 70.4211 54.8421Z" fill="#5454D4"/>
</svg>
