<svg width="55" height="55" viewBox="0 0 55 55" fill="none" xmlns="http://www.w3.org/2000/svg">
<path fill-rule="evenodd" clip-rule="evenodd" d="M27.5 55C42.6878 55 55 42.6878 55 27.5C55 12.3122 42.6878 0 27.5 0C12.3122 0 0 12.3122 0 27.5C0 42.6878 12.3122 55 27.5 55Z" fill="#5454D4" fill-opacity="0.1"/>
<path d="M34.5 17H21.5C20.12 17.0016 19.0017 18.0713 19 19.3913V38.5217C19 38.6933 19.0961 38.8517 19.2517 38.9369C19.4074 39.0221 19.5989 39.021 19.7535 38.934L28 34.2939L36.2465 38.933C36.4009 39.0199 36.5922 39.0211 36.7478 38.9362C36.9034 38.8512 36.9997 38.6931 37 38.5217V19.3913C36.9983 18.0713 35.88 17.0016 34.5 17Z" fill="#5454D4"/>
</svg>
