<svg width="55" height="55" viewBox="0 0 55 55" fill="none" xmlns="http://www.w3.org/2000/svg">
<path fill-rule="evenodd" clip-rule="evenodd" d="M27.5 55C42.6878 55 55 42.6878 55 27.5C55 12.3122 42.6878 0 27.5 0C12.3122 0 0 12.3122 0 27.5C0 42.6878 12.3122 55 27.5 55Z" fill="#5454D4" fill-opacity="0.1"/>
<path d="M28 37H17.44C16.6447 37 16 36.3638 16 35.5789V20.4211C16 19.6362 16.6447 19 17.44 19H28V19.9474H17.44C17.1749 19.9474 16.96 20.1594 16.96 20.4211V35.5789C16.96 35.8406 17.1749 36.0526 17.44 36.0526H28V37Z" fill="#5454D4"/>
<path fill-rule="evenodd" clip-rule="evenodd" d="M30 19H37.5789C38.3638 19 39 19.6362 39 20.4211V35.5789C39 36.3638 38.3638 37 37.5789 37H30V19ZM32.8421 32.2632H36.1579C36.4195 32.2632 36.6316 32.0511 36.6316 31.7895C36.6316 31.5279 36.4195 31.3158 36.1579 31.3158H32.8421C32.5805 31.3158 32.3684 31.5279 32.3684 31.7895C32.3684 32.0511 32.5805 32.2632 32.8421 32.2632ZM36.1579 28.4737H32.8421C32.5805 28.4737 32.3684 28.2616 32.3684 28C32.3684 27.7384 32.5805 27.5263 32.8421 27.5263H36.1579C36.4195 27.5263 36.6316 27.7384 36.6316 28C36.6316 28.2616 36.4195 28.4737 36.1579 28.4737ZM32.8421 24.6842H36.1579C36.4195 24.6842 36.6316 24.4721 36.6316 24.2105C36.6316 23.9489 36.4195 23.7368 36.1579 23.7368H32.8421C32.5805 23.7368 32.3684 23.9489 32.3684 24.2105C32.3684 24.4721 32.5805 24.6842 32.8421 24.6842Z" fill="#5454D4"/>
</svg>
