<svg width="55" height="55" viewBox="0 0 55 55" fill="none" xmlns="http://www.w3.org/2000/svg">
<path fill-rule="evenodd" clip-rule="evenodd" d="M27.5 55C42.6878 55 55 42.6878 55 27.5C55 12.3122 42.6878 0 27.5 0C12.3122 0 0 12.3122 0 27.5C0 42.6878 12.3122 55 27.5 55Z" fill="#F04037" fill-opacity="0.1"/>
<path d="M35.913 24.0554C34.0637 24.0554 30.981 26.2421 27.718 28.5575C24.8529 30.5906 21.6051 32.895 20.087 32.895C17.9058 32.895 16.1304 31.1597 16.1304 29.0277C16.1304 26.8957 17.9058 25.1603 20.087 25.1603C20.469 25.1603 20.9862 25.3023 21.6063 25.5625L20.1842 28.1045C20.0779 28.2934 20.0949 28.5255 20.226 28.6984C20.3334 28.8409 20.503 28.9216 20.6799 28.9216C20.7177 28.9216 20.7573 28.9177 20.7957 28.91L25.8544 27.8763C26.015 27.8432 26.1534 27.7443 26.2331 27.6034C26.3128 27.4625 26.3258 27.2951 26.2687 27.1448L24.464 22.3615C24.3871 22.1582 24.1961 22.0173 23.9751 22.0018C23.758 21.9841 23.5438 22.0979 23.4381 22.288L22.1489 24.5929C21.331 24.241 20.6375 24.0554 20.087 24.0554C17.2818 24.0554 15 26.2857 15 29.0277C15 31.7696 17.2818 34 20.087 34C21.972 34 25.0857 31.7906 28.3821 29.452C31.2167 27.4404 34.4305 25.1603 35.913 25.1603C38.0942 25.1603 39.8696 26.8957 39.8696 29.0277C39.8696 31.1597 38.0942 32.895 35.913 32.895C35.0177 32.895 33.391 32.1431 31.3325 30.7774C31.0748 30.605 30.7232 30.6724 30.5474 30.9243C30.3717 31.1768 30.4395 31.5205 30.6978 31.6917C33.0061 33.2232 34.7611 34 35.913 34C38.7182 34 41 31.7696 41 29.0277C41 26.2857 38.7182 24.0554 35.913 24.0554Z" fill="#F04037"/>
</svg>
