<svg width="55" height="55" viewBox="0 0 55 55" fill="none" xmlns="http://www.w3.org/2000/svg">
<path fill-rule="evenodd" clip-rule="evenodd" d="M27.5 55C42.6878 55 55 42.6878 55 27.5C55 12.3122 42.6878 0 27.5 0C12.3122 0 0 12.3122 0 27.5C0 42.6878 12.3122 55 27.5 55Z" fill="#F04037" fill-opacity="0.1"/>
<path d="M28 28V38H36.5C37.3284 38 38 37.3284 38 36.5V28H28Z" fill="#F04037"/>
<path d="M27 27V17H18.5C17.6716 17 17 17.6716 17 18.5V27H27Z" fill="#F04037"/>
<path d="M28 27H38V18.5C38 17.6716 37.3284 17 36.5 17H28V27Z" fill="#F04037"/>
<path d="M27 28H17V36.5C17 37.3284 17.6716 38 18.5 38H27V28Z" fill="#F04037"/>
</svg>
