<svg width="55" height="55" viewBox="0 0 55 55" fill="none" xmlns="http://www.w3.org/2000/svg">
<path fill-rule="evenodd" clip-rule="evenodd" d="M27.5 55C42.6878 55 55 42.6878 55 27.5C55 12.3122 42.6878 0 27.5 0C12.3122 0 0 12.3122 0 27.5C0 42.6878 12.3122 55 27.5 55Z" fill="#77BF41" fill-opacity="0.1"/>
<path fill-rule="evenodd" clip-rule="evenodd" d="M38.1739 17H17.8261C16.2653 17 15 18.2792 15 19.8571V32.4284C15 33.1862 15.2977 33.9129 15.8277 34.4487C16.3577 34.9845 17.0766 35.2855 17.8261 35.2855H23.207L27.5591 40.7854C27.6664 40.9211 27.8288 41 28.0006 41C28.1723 41 28.3347 40.9211 28.442 40.7854L32.793 35.2855H38.1739C39.7347 35.2855 41 34.0063 41 32.4284V19.8571C41 18.2792 39.7347 17 38.1739 17ZM29.1917 29H21.6083C21.3092 29 21.0667 28.8081 21.0667 28.5714C21.0667 28.3347 21.3092 28.1429 21.6083 28.1429H29.1917C29.4908 28.1429 29.7333 28.3347 29.7333 28.5714C29.7333 28.8081 29.4908 29 29.1917 29ZM21.6333 23.8571H35.2333C35.5463 23.8571 35.8 23.6653 35.8 23.4286C35.8 23.1919 35.5463 23 35.2333 23H21.6333C21.3204 23 21.0667 23.1919 21.0667 23.4286C21.0667 23.6653 21.3204 23.8571 21.6333 23.8571Z" fill="#77BF41"/>
</svg>
