<svg width="55" height="55" viewBox="0 0 55 55" fill="none" xmlns="http://www.w3.org/2000/svg">
<path fill-rule="evenodd" clip-rule="evenodd" d="M27.5 55C42.6878 55 55 42.6878 55 27.5C55 12.3122 42.6878 0 27.5 0C12.3122 0 0 12.3122 0 27.5C0 42.6878 12.3122 55 27.5 55Z" fill="#5454D4" fill-opacity="0.1"/>
<path d="M25.5294 30H18.4706C18.2108 30 18 29.776 18 29.5V17.5C18 17.224 18.2108 17 18.4706 17H25.5294C25.7892 17 26 17.224 26 17.5V29.5C26 29.776 25.7892 30 25.5294 30Z" fill="#5454D4"/>
<path d="M25.5294 39H18.4706C18.2108 39 18 38.776 18 38.5V32.5C18 32.224 18.2108 32 18.4706 32H25.5294C25.7892 32 26 32.224 26 32.5V38.5C26 38.776 25.7892 39 25.5294 39Z" fill="#5454D4"/>
<path d="M36.5294 24H29.4706C29.2108 24 29 23.776 29 23.5V17.5C29 17.224 29.2108 17 29.4706 17H36.5294C36.7892 17 37 17.224 37 17.5V23.5C37 23.776 36.7892 24 36.5294 24Z" fill="#5454D4"/>
<path d="M36.5294 39H29.4706C29.2108 39 29 38.776 29 38.5V26.5C29 26.224 29.2108 26 29.4706 26H36.5294C36.7892 26 37 26.224 37 26.5V38.5C37 38.776 36.7892 39 36.5294 39Z" fill="#5454D4"/>
</svg>
